<svg xmlns:xlink="http://www.w3.org/1999/xlink" xmlns="http://www.w3.org/2000/svg" height="16" width="16"><defs><path d="M0 16h16V0H0z" id="a"></path></defs><g fill-rule="evenodd" fill="none" transform="matrix(1 0 0 -1 0 16)"><mask fill="#fff" id="b"></mask><g mask="url(#b)"><path fill-rule="nonzero" fill="#FFD983" d="M12.889 11.084c0-2.861-2.222-3.306-2.222-5.973 0-1.377-1.388-1.493-2.445-1.493-.912 0-2.927.346-2.927 1.494 0 2.666-2.184 3.11-2.184 5.972 0 2.68 2.349 4.854 4.926 4.854 2.578 0 4.852-2.173 4.852-4.854"></path><path fill-rule="nonzero" fill="#CCD6DD" d="M9.852 1.556C9.852 1.188 8.859.444 8 .444c-.86 0-1.852.744-1.852 1.112 0 .368.993.222 1.852.222.86 0 1.852.146 1.852-.222"></path><path fill-rule="nonzero" fill="#FFCC4D" d="M10.092 11.425a.444.444 0 0 1-.628 0L8 9.962l-1.464 1.463a.444.444 0 1 1-.628-.628l1.648-1.648V4.444a.444.444 0 1 1 .888 0V9.15l1.648 1.648a.444.444 0 0 1 0 .628"></path><path fill-rule="nonzero" fill="#99AAB5" d="M10.667 2.222a.889.889 0 0 0-.89-.889H6.223a.889.889 0 0 0-.889.89v2.666h5.334V2.222z"></path><path fill-rule="nonzero" fill="#CCD6DD" d="M5.333 1.778a.444.444 0 0 0-.073.882l5.334.89a.444.444 0 1 0 .146-.876l-5.333-.89a.42.42 0 0 0-.074-.006M5.333 3.556a.444.444 0 0 0-.073.882l5.334.89a.444.444 0 1 0 .146-.876l-5.333-.89a.42.42 0 0 0-.074-.006"></path></g></g></svg>