<svg xmlns:xlink="http://www.w3.org/1999/xlink" xmlns="http://www.w3.org/2000/svg" height="16" width="16"><defs><path d="M0 16h16V0H0z" id="a"></path></defs><g fill-rule="evenodd" fill="none" transform="matrix(1 0 0 -1 0 16)"><mask fill="#fff" id="b"></mask><g fill-rule="nonzero" mask="url(#b)"><path fill="#FFCC4D" d="M16 8A8 8 0 1 0 0 8a8 8 0 0 0 16 0"></path><path fill="#664500" d="M4.673 5.502c.02-.08.52-1.946 3.327-1.946 2.808 0 3.307 1.866 3.326 1.946a.222.222 0 0 1-.371.212c-.009-.009-.869-.825-2.955-.825-2.086 0-2.947.816-2.955.825a.224.224 0 0 1-.266.035.222.222 0 0 1-.106-.247M6.444 10c0-.86-.497-1.556-1.11-1.556-.614 0-1.112.696-1.112 1.556 0 .86.498 1.556 1.111 1.556.614 0 1.111-.697 1.111-1.556M11.778 10c0-.86-.498-1.556-1.111-1.556-.614 0-1.111.696-1.111 1.556 0 .86.497 1.556 1.11 1.556.614 0 1.112-.697 1.112-1.556"></path></g></g></svg>