<svg xmlns:xlink="http://www.w3.org/1999/xlink" xmlns="http://www.w3.org/2000/svg" height="16" width="16"><defs><path d="M0 16h16V0H0z" id="a"></path></defs><g fill-rule="evenodd" fill="none" transform="matrix(1 0 0 -1 0 16)"><mask fill="#fff" id="b"></mask><g mask="url(#b)"><path fill-rule="nonzero" fill="#FFCB4C" d="M16 8A8 8 0 1 0 0 8a8 8 0 0 0 16 0"></path><path fill-rule="nonzero" fill="#65471B" d="M6.222 9.556c0-.86-.497-1.556-1.11-1.556C4.496 8 4 8.696 4 9.556c0 .859.497 1.555 1.111 1.555s1.111-.696 1.111-1.555M12 9.556C12 8.696 11.503 8 10.889 8s-1.111.696-1.111 1.556c0 .859.497 1.555 1.11 1.555.615 0 1.112-.696 1.112-1.555M3.111 6.55c0-1.762 2.043-4 4.889-4s4.889 2.222 4.889 4c0 0-4.593-1.225-9.778 0"></path><path fill-rule="nonzero" fill="#E8596E" d="M8.243 5.51l-.485.002c-1.43.033-2.425.265-2.425.265V2.683C5.333 1.35 6.223.016 8 .016c1.778 0 2.667 1.334 2.667 2.667v3.075a12.77 12.77 0 0 0-2.424-.248"></path></g></g></svg>